<svg width="1920" height="1080" viewBox="0 0 1920 1080" fill="none" xmlns="http://www.w3.org/2000/svg">
<rect width="1920" height="1080" fill="black" fill-opacity="0.65"/>
<g filter="url(#filter0_d_60_251)">
<rect x="685" y="363" width="550" height="302" rx="6" fill="#36393F"/>
</g>
<rect x="716" y="488.505" width="488" height="50.996" rx="6" fill="#202225"/>
<path d="M721.086 455.375C722.56 455.375 723.635 455.693 724.312 456.328C724.99 456.958 725.328 457.828 725.328 458.938C725.328 459.438 725.253 459.917 725.102 460.375C724.951 460.828 724.703 461.232 724.359 461.586C724.021 461.94 723.568 462.221 723 462.43C722.432 462.633 721.732 462.734 720.898 462.734H719.859V466.797H717.438V455.375H721.086ZM720.961 457.359H719.859V460.75H720.656C721.109 460.75 721.503 460.69 721.836 460.57C722.169 460.451 722.427 460.263 722.609 460.008C722.792 459.753 722.883 459.424 722.883 459.023C722.883 458.461 722.727 458.044 722.414 457.773C722.102 457.497 721.617 457.359 720.961 457.359ZM730.812 455.375C731.849 455.375 732.703 455.5 733.375 455.75C734.052 456 734.555 456.378 734.883 456.883C735.211 457.388 735.375 458.026 735.375 458.797C735.375 459.318 735.276 459.773 735.078 460.164C734.88 460.555 734.62 460.885 734.297 461.156C733.974 461.427 733.625 461.648 733.25 461.82L736.609 466.797H733.922L731.195 462.414H729.906V466.797H727.484V455.375H730.812ZM730.641 457.359H729.906V460.445H730.688C731.49 460.445 732.062 460.312 732.406 460.047C732.755 459.776 732.93 459.38 732.93 458.859C732.93 458.318 732.742 457.932 732.367 457.703C731.997 457.474 731.422 457.359 730.641 457.359ZM748.414 461.07C748.414 461.951 748.305 462.753 748.086 463.477C747.867 464.195 747.534 464.815 747.086 465.336C746.643 465.857 746.081 466.258 745.398 466.539C744.716 466.815 743.909 466.953 742.977 466.953C742.044 466.953 741.237 466.815 740.555 466.539C739.872 466.258 739.307 465.857 738.859 465.336C738.417 464.815 738.086 464.193 737.867 463.469C737.648 462.745 737.539 461.94 737.539 461.055C737.539 459.872 737.732 458.844 738.117 457.969C738.508 457.089 739.107 456.406 739.914 455.922C740.721 455.438 741.747 455.195 742.992 455.195C744.232 455.195 745.25 455.438 746.047 455.922C746.849 456.406 747.443 457.089 747.828 457.969C748.219 458.849 748.414 459.883 748.414 461.07ZM740.078 461.07C740.078 461.867 740.177 462.555 740.375 463.133C740.578 463.706 740.893 464.148 741.32 464.461C741.747 464.768 742.299 464.922 742.977 464.922C743.664 464.922 744.221 464.768 744.648 464.461C745.076 464.148 745.385 463.706 745.578 463.133C745.776 462.555 745.875 461.867 745.875 461.07C745.875 459.872 745.651 458.93 745.203 458.242C744.755 457.555 744.018 457.211 742.992 457.211C742.31 457.211 741.753 457.367 741.32 457.68C740.893 457.987 740.578 458.43 740.375 459.008C740.177 459.581 740.078 460.268 740.078 461.07ZM760.258 460.977C760.258 462.263 760.01 463.339 759.516 464.203C759.026 465.062 758.315 465.711 757.383 466.148C756.451 466.581 755.328 466.797 754.016 466.797H750.781V455.375H754.367C755.565 455.375 756.604 455.589 757.484 456.016C758.365 456.438 759.047 457.065 759.531 457.898C760.016 458.727 760.258 459.753 760.258 460.977ZM757.742 461.039C757.742 460.195 757.617 459.503 757.367 458.961C757.122 458.414 756.758 458.01 756.273 457.75C755.794 457.49 755.201 457.359 754.492 457.359H753.203V464.797H754.242C755.424 464.797 756.302 464.482 756.875 463.852C757.453 463.221 757.742 462.284 757.742 461.039ZM771.922 455.375V462.766C771.922 463.552 771.747 464.263 771.398 464.898C771.055 465.529 770.531 466.029 769.828 466.398C769.13 466.768 768.25 466.953 767.188 466.953C765.677 466.953 764.526 466.568 763.734 465.797C762.943 465.026 762.547 464.005 762.547 462.734V455.375H764.961V462.367C764.961 463.31 765.154 463.971 765.539 464.352C765.924 464.732 766.495 464.922 767.25 464.922C767.781 464.922 768.211 464.831 768.539 464.648C768.872 464.466 769.117 464.185 769.273 463.805C769.43 463.424 769.508 462.94 769.508 462.352V455.375H771.922ZM779.57 457.227C779.107 457.227 778.695 457.318 778.336 457.5C777.982 457.677 777.682 457.935 777.438 458.273C777.198 458.612 777.016 459.021 776.891 459.5C776.766 459.979 776.703 460.518 776.703 461.117C776.703 461.924 776.802 462.615 777 463.188C777.203 463.755 777.516 464.19 777.938 464.492C778.359 464.789 778.904 464.938 779.57 464.938C780.034 464.938 780.497 464.885 780.961 464.781C781.43 464.677 781.938 464.529 782.484 464.336V466.367C781.979 466.576 781.482 466.724 780.992 466.812C780.503 466.906 779.953 466.953 779.344 466.953C778.167 466.953 777.198 466.711 776.438 466.227C775.682 465.737 775.122 465.055 774.758 464.18C774.393 463.299 774.211 462.273 774.211 461.102C774.211 460.237 774.328 459.445 774.562 458.727C774.797 458.008 775.141 457.385 775.594 456.859C776.047 456.333 776.607 455.927 777.273 455.641C777.94 455.354 778.706 455.211 779.57 455.211C780.138 455.211 780.706 455.284 781.273 455.43C781.846 455.57 782.393 455.766 782.914 456.016L782.133 457.984C781.706 457.781 781.276 457.604 780.844 457.453C780.411 457.302 779.987 457.227 779.57 457.227ZM789.328 466.797H786.906V457.391H783.805V455.375H792.43V457.391H789.328V466.797ZM808.477 466.797H805.398L800.43 458.156H800.359C800.38 458.516 800.398 458.878 800.414 459.242C800.43 459.607 800.445 459.971 800.461 460.336C800.477 460.695 800.492 461.057 800.508 461.422V466.797H798.344V455.375H801.398L806.359 463.93H806.414C806.404 463.576 806.391 463.224 806.375 462.875C806.359 462.526 806.344 462.177 806.328 461.828C806.318 461.479 806.307 461.13 806.297 460.781V455.375H808.477V466.797ZM818.352 466.797L817.523 464.078H813.359L812.531 466.797H809.922L813.953 455.328H816.914L820.961 466.797H818.352ZM816.945 462.047L816.117 459.391C816.065 459.214 815.995 458.987 815.906 458.711C815.823 458.43 815.737 458.146 815.648 457.859C815.565 457.568 815.497 457.315 815.445 457.102C815.393 457.315 815.32 457.581 815.227 457.898C815.138 458.211 815.052 458.508 814.969 458.789C814.885 459.07 814.826 459.271 814.789 459.391L813.969 462.047H816.945ZM827.242 466.797L824.492 457.836H824.422C824.432 458.049 824.448 458.372 824.469 458.805C824.495 459.232 824.518 459.688 824.539 460.172C824.56 460.656 824.57 461.094 824.57 461.484V466.797H822.406V455.375H825.703L828.406 464.109H828.453L831.32 455.375H834.617V466.797H832.359V461.391C832.359 461.031 832.365 460.617 832.375 460.148C832.391 459.68 832.409 459.234 832.43 458.812C832.451 458.385 832.466 458.065 832.477 457.852H832.406L829.461 466.797H827.242ZM844.078 466.797H837.5V455.375H844.078V457.359H839.922V459.867H843.789V461.852H839.922V464.797H844.078V466.797Z" fill="#B9B9B9"/>
<rect x="716" y="584.426" width="96" height="50.996" rx="6" fill="#202225"/>
<path d="M727.805 566.122C727.805 566.971 727.703 567.75 727.5 568.458C727.302 569.161 726.995 569.771 726.578 570.286C726.161 570.802 725.633 571.205 724.992 571.497L727.742 574.567H724.641L722.547 572.005C722.51 572.005 722.479 572.005 722.453 572.005C722.427 572.005 722.398 572.005 722.367 572.005C721.435 572.005 720.628 571.867 719.945 571.591C719.263 571.31 718.698 570.909 718.25 570.388C717.807 569.867 717.477 569.244 717.258 568.521C717.039 567.797 716.93 566.992 716.93 566.106C716.93 564.924 717.122 563.896 717.508 563.021C717.898 562.14 718.497 561.458 719.305 560.974C720.112 560.489 721.138 560.247 722.383 560.247C723.622 560.247 724.641 560.489 725.438 560.974C726.24 561.458 726.833 562.14 727.219 563.021C727.609 563.901 727.805 564.935 727.805 566.122ZM719.469 566.122C719.469 566.919 719.568 567.606 719.766 568.185C719.969 568.757 720.284 569.2 720.711 569.513C721.138 569.82 721.69 569.974 722.367 569.974C723.055 569.974 723.612 569.82 724.039 569.513C724.466 569.2 724.776 568.757 724.969 568.185C725.167 567.606 725.266 566.919 725.266 566.122C725.266 564.924 725.042 563.981 724.594 563.294C724.146 562.606 723.409 562.263 722.383 562.263C721.701 562.263 721.143 562.419 720.711 562.731C720.284 563.039 719.969 563.481 719.766 564.06C719.568 564.632 719.469 565.32 719.469 566.122ZM739.469 560.427V567.817C739.469 568.604 739.294 569.315 738.945 569.95C738.602 570.58 738.078 571.08 737.375 571.45C736.677 571.82 735.797 572.005 734.734 572.005C733.224 572.005 732.073 571.619 731.281 570.849C730.49 570.078 730.094 569.057 730.094 567.786V560.427H732.508V567.419C732.508 568.362 732.701 569.023 733.086 569.403C733.471 569.784 734.042 569.974 734.797 569.974C735.328 569.974 735.758 569.882 736.086 569.7C736.419 569.518 736.664 569.237 736.82 568.856C736.977 568.476 737.055 567.992 737.055 567.403V560.427H739.469ZM749.258 571.849L748.43 569.13H744.266L743.438 571.849H740.828L744.859 560.38H747.82L751.867 571.849H749.258ZM747.852 567.099L747.023 564.442C746.971 564.265 746.901 564.039 746.812 563.763C746.729 563.481 746.643 563.198 746.555 562.911C746.471 562.619 746.404 562.367 746.352 562.153C746.299 562.367 746.227 562.632 746.133 562.95C746.044 563.263 745.958 563.56 745.875 563.841C745.792 564.122 745.732 564.323 745.695 564.442L744.875 567.099H747.852ZM763.445 571.849H760.367L755.398 563.208H755.328C755.349 563.567 755.367 563.929 755.383 564.294C755.398 564.659 755.414 565.023 755.43 565.388C755.445 565.747 755.461 566.109 755.477 566.474V571.849H753.312V560.427H756.367L761.328 568.981H761.383C761.372 568.627 761.359 568.276 761.344 567.927C761.328 567.578 761.312 567.229 761.297 566.88C761.286 566.531 761.276 566.182 761.266 565.833V560.427H763.445V571.849ZM770.734 571.849H768.312V562.442H765.211V560.427H773.836V562.442H770.734V571.849ZM775.594 571.849V560.427H778.016V571.849H775.594ZM785.297 571.849H782.875V562.442H779.773V560.427H788.398V562.442H785.297V571.849ZM793.711 565.13L796.094 560.427H798.703L794.914 567.403V571.849H792.508V567.481L788.719 560.427H791.344L793.711 565.13Z" fill="#B9B9B9"/>
<rect x="835" y="584.426" width="369" height="50.996" rx="6" fill="#038DFE"/>
<path d="M1007.01 612.247C1007.01 613.008 1006.82 613.659 1006.44 614.198C1006.06 614.731 1005.54 615.138 1004.86 615.419C1004.18 615.701 1003.38 615.841 1002.46 615.841C1001.97 615.841 1001.51 615.818 1001.08 615.771C1000.64 615.724 1000.24 615.657 999.881 615.569C999.518 615.481 999.198 615.373 998.923 615.244V613.811C999.362 613.993 999.898 614.163 1000.53 614.321C1001.16 614.473 1001.83 614.549 1002.52 614.549C1003.16 614.549 1003.71 614.464 1004.15 614.294C1004.6 614.119 1004.93 613.87 1005.16 613.547C1005.4 613.219 1005.51 612.827 1005.51 612.37C1005.51 611.93 1005.42 611.564 1005.22 611.271C1005.03 610.972 1004.71 610.703 1004.26 610.462C1003.81 610.216 1003.2 609.956 1002.43 609.68C1001.88 609.487 1001.4 609.276 1000.99 609.047C1000.57 608.813 1000.22 608.549 999.942 608.256C999.661 607.963 999.447 607.624 999.301 607.237C999.16 606.85 999.09 606.408 999.09 605.91C999.09 605.224 999.263 604.638 999.608 604.152C999.96 603.66 1000.44 603.285 1001.06 603.027C1001.68 602.763 1002.39 602.631 1003.19 602.631C1003.88 602.631 1004.51 602.696 1005.09 602.825C1005.68 602.954 1006.21 603.126 1006.7 603.343L1006.24 604.626C1005.77 604.433 1005.28 604.272 1004.76 604.143C1004.24 604.014 1003.71 603.95 1003.16 603.95C1002.61 603.95 1002.14 604.032 1001.76 604.196C1001.39 604.354 1001.1 604.58 1000.9 604.873C1000.7 605.166 1000.6 605.514 1000.6 605.918C1000.6 606.37 1000.7 606.745 1000.88 607.043C1001.08 607.342 1001.38 607.609 1001.8 607.843C1002.22 608.072 1002.78 608.312 1003.47 608.564C1004.22 608.839 1004.86 609.132 1005.39 609.443C1005.92 609.748 1006.32 610.123 1006.6 610.568C1006.87 611.007 1007.01 611.567 1007.01 612.247ZM1013.02 605.875C1014.17 605.875 1015.02 606.132 1015.58 606.648C1016.13 607.164 1016.41 607.987 1016.41 609.118V615.666H1015.35L1015.07 614.242H1015C1014.73 614.593 1014.45 614.889 1014.15 615.129C1013.86 615.364 1013.52 615.542 1013.13 615.666C1012.75 615.783 1012.29 615.841 1011.73 615.841C1011.14 615.841 1010.62 615.739 1010.16 615.534C1009.71 615.329 1009.36 615.018 1009.09 614.602C1008.83 614.186 1008.71 613.659 1008.71 613.02C1008.71 612.059 1009.09 611.321 1009.85 610.805C1010.61 610.29 1011.77 610.008 1013.33 609.961L1014.99 609.891V609.302C1014.99 608.47 1014.81 607.887 1014.45 607.553C1014.1 607.219 1013.59 607.052 1012.94 607.052C1012.44 607.052 1011.96 607.125 1011.5 607.272C1011.04 607.418 1010.61 607.591 1010.2 607.791L1009.75 606.683C1010.18 606.46 1010.68 606.27 1011.25 606.112C1011.81 605.954 1012.4 605.875 1013.02 605.875ZM1014.97 610.919L1013.5 610.981C1012.3 611.028 1011.46 611.224 1010.96 611.57C1010.47 611.916 1010.23 612.405 1010.23 613.038C1010.23 613.588 1010.39 613.996 1010.73 614.259C1011.06 614.523 1011.5 614.655 1012.05 614.655C1012.91 614.655 1013.61 614.417 1014.15 613.943C1014.7 613.468 1014.97 612.756 1014.97 611.807V610.919ZM1021.54 615.666L1017.88 606.033H1019.45L1021.56 611.86C1021.71 612.258 1021.86 612.698 1022.01 613.178C1022.16 613.659 1022.27 614.045 1022.33 614.338H1022.39C1022.46 614.045 1022.58 613.659 1022.74 613.178C1022.91 612.692 1023.05 612.252 1023.19 611.86L1025.31 606.033H1026.87L1023.21 615.666H1021.54ZM1032.13 605.857C1032.95 605.857 1033.65 606.039 1034.24 606.402C1034.82 606.765 1035.27 607.275 1035.58 607.931C1035.89 608.582 1036.05 609.343 1036.05 610.216V611.122H1029.39C1029.41 612.252 1029.69 613.114 1030.24 613.706C1030.78 614.297 1031.55 614.593 1032.54 614.593C1033.15 614.593 1033.69 614.538 1034.16 614.426C1034.63 614.315 1035.11 614.151 1035.62 613.934V615.217C1035.13 615.434 1034.65 615.592 1034.17 615.692C1033.69 615.792 1033.13 615.841 1032.48 615.841C1031.55 615.841 1030.75 615.654 1030.05 615.279C1029.37 614.898 1028.83 614.341 1028.45 613.609C1028.07 612.876 1027.88 611.98 1027.88 610.919C1027.88 609.882 1028.06 608.986 1028.4 608.23C1028.75 607.468 1029.25 606.882 1029.88 606.472C1030.52 606.062 1031.27 605.857 1032.13 605.857ZM1032.11 607.052C1031.33 607.052 1030.71 607.307 1030.25 607.817C1029.78 608.327 1029.51 609.039 1029.42 609.953H1034.52C1034.51 609.378 1034.42 608.875 1034.25 608.441C1034.08 608.001 1033.82 607.662 1033.46 607.421C1033.11 607.175 1032.66 607.052 1032.11 607.052Z" fill="white"/>
<path d="M1006.44 614.198L1006.03 613.909L1006.03 613.91L1006.44 614.198ZM998.923 615.244H998.423V615.562L998.711 615.696L998.923 615.244ZM998.923 613.811L999.114 613.349L998.423 613.063V613.811H998.923ZM1000.53 614.321L1000.41 614.806L1000.41 614.807L1000.53 614.321ZM1004.15 614.294L1004.33 614.762L1004.34 614.76L1004.15 614.294ZM1005.16 613.547L1004.76 613.257L1004.76 613.258L1005.16 613.547ZM1005.22 611.271L1004.8 611.543L1004.81 611.546L1005.22 611.271ZM1004.26 610.462L1004.02 610.9L1004.02 610.904L1004.26 610.462ZM1002.43 609.68L1002.6 609.209L1002.6 609.209L1002.43 609.68ZM1000.99 609.047L1000.74 609.483L1000.75 609.486L1000.99 609.047ZM999.301 607.237L998.831 607.408L998.833 607.414L999.301 607.237ZM999.608 604.152L999.202 603.861L999.201 603.862L999.608 604.152ZM1001.06 603.027L1001.25 603.488L1001.25 603.487L1001.06 603.027ZM1005.09 602.825L1004.98 603.313L1004.99 603.313L1005.09 602.825ZM1006.7 603.343L1007.17 603.514L1007.33 603.076L1006.9 602.887L1006.7 603.343ZM1006.24 604.626L1006.04 605.088L1006.53 605.29L1006.71 604.797L1006.24 604.626ZM1004.76 604.143L1004.64 604.628L1004.64 604.628L1004.76 604.143ZM1001.76 604.196L1001.96 604.656L1001.96 604.655L1001.76 604.196ZM1000.88 607.043L1000.46 607.309L1000.46 607.315L1000.88 607.043ZM1001.8 607.843L1001.55 608.279L1001.56 608.283L1001.8 607.843ZM1003.47 608.564L1003.3 609.034L1003.3 609.034L1003.47 608.564ZM1005.39 609.443L1005.14 609.874L1005.14 609.876L1005.39 609.443ZM1006.6 610.568L1006.17 610.831L1006.17 610.833L1006.6 610.568ZM1006.51 612.247C1006.51 612.921 1006.34 613.467 1006.03 613.909L1006.85 614.486C1007.3 613.85 1007.51 613.095 1007.51 612.247H1006.51ZM1006.03 613.91C1005.71 614.356 1005.27 614.708 1004.66 614.957L1005.05 615.881C1005.8 615.569 1006.41 615.106 1006.85 614.485L1006.03 613.91ZM1004.66 614.957C1004.06 615.208 1003.33 615.341 1002.46 615.341V616.341C1003.43 616.341 1004.29 616.193 1005.05 615.881L1004.66 614.957ZM1002.46 615.341C1001.99 615.341 1001.54 615.319 1001.13 615.274L1001.02 616.268C1001.48 616.317 1001.95 616.341 1002.46 616.341V615.341ZM1001.13 615.274C1000.71 615.229 1000.34 615.165 999.998 615.083L999.763 616.055C1000.15 616.149 1000.57 616.219 1001.02 616.268L1001.13 615.274ZM999.998 615.083C999.661 615.001 999.374 614.903 999.135 614.791L998.711 615.696C999.023 615.842 999.375 615.961 999.763 616.055L999.998 615.083ZM999.423 615.244V613.811H998.423V615.244H999.423ZM998.732 614.273C999.201 614.467 999.761 614.644 1000.41 614.806L1000.65 613.836C1000.04 613.681 999.524 613.519 999.114 613.349L998.732 614.273ZM1000.41 614.807C1001.09 614.969 1001.79 615.049 1002.52 615.049V614.049C1001.86 614.049 1001.24 613.977 1000.65 613.835L1000.41 614.807ZM1002.52 615.049C1003.2 615.049 1003.81 614.959 1004.33 614.762L1003.97 613.827C1003.6 613.969 1003.12 614.049 1002.52 614.049V615.049ZM1004.34 614.76C1004.85 614.556 1005.28 614.253 1005.57 613.837L1004.76 613.258C1004.59 613.486 1004.34 613.682 1003.97 613.829L1004.34 614.76ZM1005.57 613.838C1005.87 613.414 1006.01 612.916 1006.01 612.37H1005.01C1005.01 612.737 1004.92 613.024 1004.76 613.257L1005.57 613.838ZM1006.01 612.37C1006.01 611.857 1005.9 611.389 1005.64 610.996L1004.81 611.546C1004.93 611.739 1005.01 612.003 1005.01 612.37H1006.01ZM1005.64 610.999C1005.39 610.605 1004.99 610.285 1004.49 610.021L1004.02 610.904C1004.43 611.12 1004.67 611.34 1004.8 611.543L1005.64 610.999ZM1004.5 610.025C1004.02 609.76 1003.38 609.489 1002.6 609.209L1002.26 610.151C1003.02 610.422 1003.6 610.673 1004.02 610.9L1004.5 610.025ZM1002.6 609.209C1002.07 609.023 1001.62 608.822 1001.23 608.609L1000.75 609.486C1001.19 609.73 1001.7 609.951 1002.26 610.151L1002.6 609.209ZM1001.23 608.612C1000.85 608.397 1000.55 608.162 1000.3 607.91L999.582 608.603C999.902 608.936 1000.29 609.229 1000.74 609.483L1001.23 608.612ZM1000.3 607.91C1000.07 607.667 999.891 607.385 999.768 607.06L998.833 607.414C999.003 607.862 999.253 608.26 999.582 608.603L1000.3 607.91ZM999.771 607.066C999.654 606.744 999.59 606.361 999.59 605.91H998.59C998.59 606.454 998.667 606.956 998.831 607.408L999.771 607.066ZM999.59 605.91C999.59 605.312 999.739 604.831 1000.02 604.442L999.201 603.862C998.786 604.445 998.59 605.136 998.59 605.91H999.59ZM1000.02 604.442C1000.31 604.034 1000.71 603.714 1001.25 603.488L1000.87 602.566C1000.17 602.856 999.613 603.286 999.202 603.861L1000.02 604.442ZM1001.25 603.487C1001.8 603.254 1002.45 603.131 1003.19 603.131V602.131C1002.34 602.131 1001.56 602.272 1000.86 602.567L1001.25 603.487ZM1003.19 603.131C1003.85 603.131 1004.44 603.193 1004.98 603.313L1005.2 602.337C1004.58 602.199 1003.91 602.131 1003.19 602.131V603.131ZM1004.99 603.313C1005.54 603.436 1006.05 603.599 1006.5 603.8L1006.9 602.887C1006.38 602.654 1005.82 602.472 1005.2 602.336L1004.99 603.313ZM1006.23 603.173L1005.77 604.456L1006.71 604.797L1007.17 603.514L1006.23 603.173ZM1006.43 604.165C1005.94 603.961 1005.42 603.792 1004.88 603.658L1004.64 604.628C1005.14 604.752 1005.6 604.905 1006.04 605.088L1006.43 604.165ZM1004.88 603.658C1004.32 603.519 1003.75 603.45 1003.16 603.45V604.45C1003.67 604.45 1004.16 604.51 1004.64 604.628L1004.88 603.658ZM1003.16 603.45C1002.56 603.45 1002.02 603.538 1001.56 603.737L1001.96 604.655C1002.26 604.525 1002.66 604.45 1003.16 604.45V603.45ZM1001.57 603.735C1001.12 603.925 1000.75 604.207 1000.49 604.591L1001.31 605.154C1001.45 604.952 1001.66 604.783 1001.96 604.656L1001.57 603.735ZM1000.49 604.591C1000.22 604.979 1000.1 605.429 1000.1 605.918H1001.1C1001.1 605.6 1001.18 605.352 1001.31 605.154L1000.49 604.591ZM1000.1 605.918C1000.1 606.438 1000.21 606.911 1000.46 607.309L1001.31 606.778C1001.18 606.578 1001.1 606.302 1001.1 605.918H1000.1ZM1000.46 607.315C1000.71 607.701 1001.09 608.018 1001.55 608.279L1002.04 607.408C1001.67 607.2 1001.44 606.983 1001.3 606.772L1000.46 607.315ZM1001.56 608.283C1002.01 608.528 1002.59 608.777 1003.3 609.034L1003.64 608.094C1002.96 607.847 1002.43 607.616 1002.04 607.404L1001.56 608.283ZM1003.3 609.034C1004.03 609.302 1004.64 609.583 1005.14 609.874L1005.65 609.012C1005.09 608.682 1004.41 608.377 1003.64 608.094L1003.3 609.034ZM1005.14 609.876C1005.61 610.146 1005.95 610.466 1006.17 610.831L1007.02 610.305C1006.7 609.779 1006.23 609.349 1005.64 609.01L1005.14 609.876ZM1006.17 610.833C1006.38 611.172 1006.51 611.632 1006.51 612.247H1007.51C1007.51 611.502 1007.36 610.843 1007.02 610.302L1006.17 610.833ZM1016.41 615.666V616.166H1016.91V615.666H1016.41ZM1015.35 615.666L1014.86 615.762L1014.94 616.166H1015.35V615.666ZM1015.07 614.242L1015.56 614.145L1015.48 613.742H1015.07V614.242ZM1015 614.242V613.742H1014.75L1014.6 613.937L1015 614.242ZM1014.15 615.129L1014.47 615.52L1014.47 615.516L1014.15 615.129ZM1013.13 615.666L1013.28 616.143L1013.29 616.142L1013.13 615.666ZM1010.16 615.534L1009.96 615.989L1009.96 615.99L1010.16 615.534ZM1009.09 614.602L1008.67 614.865L1008.67 614.87L1009.09 614.602ZM1013.33 609.961L1013.34 610.461L1013.35 610.461L1013.33 609.961ZM1014.99 609.891L1015.01 610.391L1015.49 610.37V609.891H1014.99ZM1010.2 607.791L1009.74 607.978L1009.94 608.474L1010.42 608.24L1010.2 607.791ZM1009.75 606.683L1009.52 606.238L1009.12 606.447L1009.29 606.871L1009.75 606.683ZM1014.97 610.919H1015.47V610.398L1014.95 610.42L1014.97 610.919ZM1013.5 610.981L1013.52 611.481L1013.52 611.481L1013.5 610.981ZM1013.02 606.375C1014.11 606.375 1014.81 606.62 1015.24 607.015L1015.92 606.281C1015.23 605.645 1014.23 605.375 1013.02 605.375V606.375ZM1015.24 607.015C1015.65 607.398 1015.91 608.058 1015.91 609.118H1016.91C1016.91 607.916 1016.62 606.93 1015.92 606.281L1015.24 607.015ZM1015.91 609.118V615.666H1016.91V609.118H1015.91ZM1016.41 615.166H1015.35V616.166H1016.41V615.166ZM1015.84 615.569L1015.56 614.145L1014.58 614.339L1014.86 615.762L1015.84 615.569ZM1015.07 613.742H1015V614.742H1015.07V613.742ZM1014.6 613.937C1014.35 614.264 1014.1 614.531 1013.84 614.743L1014.47 615.516C1014.8 615.248 1015.11 614.923 1015.39 614.546L1014.6 613.937ZM1013.84 614.739C1013.6 614.932 1013.32 615.083 1012.98 615.189L1013.29 616.142C1013.73 616.002 1014.12 615.796 1014.47 615.52L1013.84 614.739ZM1012.99 615.188C1012.67 615.286 1012.25 615.341 1011.73 615.341V616.341C1012.32 616.341 1012.84 616.28 1013.28 616.143L1012.99 615.188ZM1011.73 615.341C1011.2 615.341 1010.75 615.249 1010.37 615.078L1009.96 615.99C1010.49 616.228 1011.08 616.341 1011.73 616.341V615.341ZM1010.37 615.079C1010.01 614.913 1009.73 614.668 1009.51 614.334L1008.67 614.87C1008.99 615.368 1009.42 615.744 1009.96 615.989L1010.37 615.079ZM1009.52 614.339C1009.32 614.022 1009.21 613.593 1009.21 613.02H1008.21C1008.21 613.724 1008.35 614.35 1008.67 614.865L1009.52 614.339ZM1009.21 613.02C1009.21 612.216 1009.51 611.637 1010.13 611.219L1009.57 610.391C1008.66 611.005 1008.21 611.902 1008.21 613.02H1009.21ZM1010.13 611.219C1010.77 610.782 1011.82 610.507 1013.34 610.461L1013.31 609.462C1011.72 609.51 1010.44 609.797 1009.57 610.391L1010.13 611.219ZM1013.35 610.461L1015.01 610.391L1014.97 609.392L1013.31 609.462L1013.35 610.461ZM1015.49 609.891V609.302H1014.49V609.891H1015.49ZM1015.49 609.302C1015.49 608.424 1015.3 607.665 1014.79 607.188L1014.11 607.919C1014.32 608.11 1014.49 608.517 1014.49 609.302H1015.49ZM1014.79 607.188C1014.32 606.742 1013.68 606.552 1012.94 606.552V607.552C1013.51 607.552 1013.87 607.696 1014.11 607.919L1014.79 607.188ZM1012.94 606.552C1012.39 606.552 1011.86 606.633 1011.35 606.796L1011.65 607.748C1012.06 607.618 1012.49 607.552 1012.94 607.552V606.552ZM1011.35 606.796C1010.87 606.949 1010.41 607.131 1009.98 607.341L1010.42 608.24C1010.81 608.052 1011.22 607.888 1011.65 607.748L1011.35 606.796ZM1010.66 607.603L1010.21 606.496L1009.29 606.871L1009.74 607.978L1010.66 607.603ZM1009.98 607.128C1010.38 606.923 1010.84 606.744 1011.38 606.593L1011.11 605.63C1010.52 605.796 1009.99 605.998 1009.52 606.238L1009.98 607.128ZM1011.38 606.593C1011.9 606.448 1012.44 606.375 1013.02 606.375V605.375C1012.36 605.375 1011.72 605.459 1011.11 605.63L1011.38 606.593ZM1014.95 610.42L1013.48 610.481L1013.52 611.481L1014.99 611.419L1014.95 610.42ZM1013.48 610.481C1012.27 610.529 1011.29 610.727 1010.68 611.161L1011.25 611.979C1011.62 611.721 1012.34 611.527 1013.52 611.481L1013.48 610.481ZM1010.68 611.161C1010.04 611.606 1009.73 612.252 1009.73 613.038H1010.73C1010.73 612.558 1010.9 612.225 1011.25 611.979L1010.68 611.161ZM1009.73 613.038C1009.73 613.692 1009.93 614.267 1010.42 614.652L1011.04 613.867C1010.86 613.725 1010.73 613.484 1010.73 613.038H1009.73ZM1010.42 614.652C1010.86 615.003 1011.42 615.155 1012.05 615.155V614.155C1011.58 614.155 1011.26 614.043 1011.04 613.867L1010.42 614.652ZM1012.05 615.155C1013.01 615.155 1013.83 614.888 1014.48 614.32L1013.83 613.566C1013.39 613.947 1012.81 614.155 1012.05 614.155V615.155ZM1014.48 614.32C1015.17 613.723 1015.47 612.853 1015.47 611.807H1014.47C1014.47 612.66 1014.23 613.214 1013.83 613.566L1014.48 614.32ZM1015.47 611.807V610.919H1014.47V611.807H1015.47ZM1021.54 615.666L1021.07 615.843L1021.19 616.166H1021.54V615.666ZM1017.88 606.033V605.533H1017.16L1017.41 606.21L1017.88 606.033ZM1019.45 606.033L1019.92 605.862L1019.8 605.533H1019.45V606.033ZM1021.56 611.86L1021.09 612.031L1021.09 612.032L1021.56 611.86ZM1022.33 614.338L1021.84 614.436L1021.92 614.838H1022.33V614.338ZM1022.39 614.338V614.838H1022.78L1022.88 614.455L1022.39 614.338ZM1022.74 613.178L1023.21 613.34L1023.21 613.338L1022.74 613.178ZM1023.19 611.86L1022.72 611.689L1022.72 611.698L1023.19 611.86ZM1025.31 606.033V605.533H1024.96L1024.84 605.862L1025.31 606.033ZM1026.87 606.033L1027.34 606.211L1027.6 605.533H1026.87V606.033ZM1023.21 615.666V616.166H1023.55L1023.67 615.843L1023.21 615.666ZM1022 615.488L1018.35 605.855L1017.41 606.21L1021.07 615.843L1022 615.488ZM1017.88 606.533H1019.45V605.533H1017.88V606.533ZM1018.98 606.204L1021.09 612.031L1022.03 611.689L1019.92 605.862L1018.98 606.204ZM1021.09 612.032C1021.24 612.423 1021.38 612.855 1021.54 613.329L1022.49 613.027C1022.33 612.541 1022.18 612.094 1022.03 611.687L1021.09 612.032ZM1021.54 613.329C1021.69 613.802 1021.78 614.169 1021.84 614.436L1022.82 614.24C1022.75 613.921 1022.64 613.515 1022.49 613.027L1021.54 613.329ZM1022.33 614.838H1022.39V613.838H1022.33V614.838ZM1022.88 614.455C1022.94 614.184 1023.05 613.814 1023.21 613.34L1022.27 613.017C1022.1 613.503 1021.98 613.907 1021.9 614.222L1022.88 614.455ZM1023.21 613.338C1023.38 612.852 1023.53 612.414 1023.66 612.022L1022.72 611.698C1022.58 612.091 1022.43 612.531 1022.27 613.018L1023.21 613.338ZM1023.66 612.031L1025.78 606.204L1024.84 605.862L1022.72 611.689L1023.66 612.031ZM1025.31 606.533H1026.87V605.533H1025.31V606.533ZM1026.4 605.855L1022.74 615.488L1023.67 615.843L1027.34 606.211L1026.4 605.855ZM1023.21 615.166H1021.54V616.166H1023.21V615.166ZM1035.58 607.931L1035.13 608.145L1035.13 608.147L1035.58 607.931ZM1036.05 611.122V611.622H1036.55V611.122H1036.05ZM1029.39 611.122V610.622H1028.89L1028.89 611.129L1029.39 611.122ZM1035.62 613.934H1036.12V613.175L1035.42 613.475L1035.62 613.934ZM1035.62 615.217L1035.82 615.674L1036.12 615.542V615.217H1035.62ZM1034.17 615.692L1034.07 615.202L1034.06 615.203L1034.17 615.692ZM1030.05 615.279L1029.81 615.716L1029.82 615.718L1030.05 615.279ZM1028.4 608.23L1027.95 608.02L1027.95 608.022L1028.4 608.23ZM1029.88 606.472L1029.61 606.051L1029.61 606.053L1029.88 606.472ZM1029.42 609.953L1028.92 609.905L1028.87 610.453H1029.42V609.953ZM1034.52 609.953V610.453H1035.02L1035.02 609.948L1034.52 609.953ZM1034.25 608.441L1033.78 608.621L1033.78 608.629L1034.25 608.441ZM1033.46 607.421L1033.18 607.831L1033.18 607.834L1033.46 607.421ZM1032.13 606.357C1032.87 606.357 1033.48 606.521 1033.97 606.827L1034.5 605.977C1033.82 605.556 1033.02 605.357 1032.13 605.357V606.357ZM1033.97 606.827C1034.47 607.137 1034.86 607.571 1035.13 608.145L1036.03 607.717C1035.68 606.979 1035.17 606.394 1034.5 605.977L1033.97 606.827ZM1035.13 608.147C1035.4 608.717 1035.55 609.402 1035.55 610.216H1036.55C1036.55 609.284 1036.38 608.446 1036.03 607.716L1035.13 608.147ZM1035.55 610.216V611.122H1036.55V610.216H1035.55ZM1036.05 610.622H1029.39V611.622H1036.05V610.622ZM1028.89 611.129C1028.91 612.333 1029.21 613.331 1029.87 614.044L1030.61 613.367C1030.17 612.896 1029.91 612.172 1029.89 611.114L1028.89 611.129ZM1029.87 614.044C1030.53 614.762 1031.45 615.093 1032.54 615.093V614.093C1031.66 614.093 1031.04 613.833 1030.61 613.367L1029.87 614.044ZM1032.54 615.093C1033.18 615.093 1033.76 615.035 1034.27 614.913L1034.04 613.94C1033.62 614.04 1033.12 614.093 1032.54 614.093V615.093ZM1034.27 614.913C1034.77 614.794 1035.29 614.62 1035.81 614.393L1035.42 613.475C1034.94 613.682 1034.48 613.836 1034.04 613.94L1034.27 614.913ZM1035.12 613.934V615.217H1036.12V613.934H1035.12ZM1035.41 614.761C1034.96 614.964 1034.51 615.111 1034.07 615.202L1034.27 616.181C1034.79 616.074 1035.3 615.904 1035.82 615.674L1035.41 614.761ZM1034.06 615.203C1033.63 615.293 1033.11 615.341 1032.48 615.341V616.341C1033.15 616.341 1033.75 616.29 1034.27 616.181L1034.06 615.203ZM1032.48 615.341C1031.62 615.341 1030.9 615.168 1030.29 614.839L1029.82 615.718C1030.59 616.14 1031.49 616.341 1032.48 616.341V615.341ZM1030.3 614.842C1029.7 614.511 1029.24 614.028 1028.9 613.378L1028.01 613.84C1028.43 614.654 1029.03 615.285 1029.81 615.716L1030.3 614.842ZM1028.9 613.378C1028.56 612.734 1028.38 611.922 1028.38 610.919H1027.38C1027.38 612.038 1027.58 613.019 1028.01 613.84L1028.9 613.378ZM1028.38 610.919C1028.38 609.937 1028.55 609.114 1028.86 608.438L1027.95 608.022C1027.56 608.857 1027.38 609.828 1027.38 610.919H1028.38ZM1028.86 608.44C1029.17 607.754 1029.61 607.245 1030.15 606.892L1029.61 606.053C1028.89 606.52 1028.33 607.183 1027.95 608.02L1028.86 608.44ZM1030.15 606.893C1030.7 606.541 1031.35 606.357 1032.13 606.357V605.357C1031.18 605.357 1030.34 605.583 1029.61 606.051L1030.15 606.893ZM1032.11 606.552C1031.21 606.552 1030.45 606.852 1029.88 607.481L1030.62 608.153C1030.97 607.762 1031.45 607.552 1032.11 607.552V606.552ZM1029.88 607.481C1029.32 608.093 1029.02 608.919 1028.92 609.905L1029.92 610C1030 609.158 1030.25 608.56 1030.62 608.153L1029.88 607.481ZM1029.42 610.453H1034.52V609.453H1029.42V610.453ZM1035.02 609.948C1035.01 609.324 1034.91 608.756 1034.71 608.253L1033.78 608.629C1033.93 608.993 1034.01 609.432 1034.02 609.958L1035.02 609.948ZM1034.71 608.261C1034.51 607.737 1034.19 607.312 1033.75 607.009L1033.18 607.834C1033.44 608.011 1033.64 608.266 1033.78 608.621L1034.71 608.261ZM1033.75 607.012C1033.29 606.692 1032.73 606.552 1032.11 606.552V607.552C1032.59 607.552 1032.93 607.658 1033.18 607.831L1033.75 607.012Z" fill="white"/>
<path d="M1215.03 384.473L1211.42 379.189H1214.04L1216.51 382.988L1218.99 379.189H1221.6L1217.96 384.473L1221.78 390H1219.15L1216.51 385.947L1213.85 390H1211.24L1215.03 384.473Z" fill="white"/>
<path d="M728.867 398L727.191 393.242H720.641L718.965 398H716L722.375 380.797H725.492L731.855 398H728.867ZM726.465 390.828L724.836 386.141C724.773 385.938 724.684 385.652 724.566 385.285C724.449 384.91 724.332 384.531 724.215 384.148C724.098 383.758 724 383.43 723.922 383.164C723.844 383.484 723.746 383.844 723.629 384.242C723.52 384.633 723.41 385 723.301 385.344C723.199 385.688 723.121 385.953 723.066 386.141L721.426 390.828H726.465ZM738.195 398.234C736.648 398.234 735.406 397.672 734.469 396.547C733.539 395.414 733.074 393.746 733.074 391.543C733.074 389.316 733.547 387.633 734.492 386.492C735.445 385.352 736.699 384.781 738.254 384.781C738.91 384.781 739.484 384.871 739.977 385.051C740.469 385.223 740.891 385.457 741.242 385.754C741.602 386.051 741.906 386.383 742.156 386.75H742.285C742.246 386.508 742.199 386.16 742.145 385.707C742.098 385.246 742.074 384.82 742.074 384.43V379.766H744.84V398H742.684L742.191 396.23H742.074C741.84 396.605 741.543 396.945 741.184 397.25C740.832 397.547 740.41 397.785 739.918 397.965C739.434 398.145 738.859 398.234 738.195 398.234ZM738.969 395.996C740.148 395.996 740.98 395.656 741.465 394.977C741.949 394.297 742.199 393.277 742.215 391.918V391.555C742.215 390.102 741.98 388.988 741.512 388.215C741.043 387.434 740.188 387.043 738.945 387.043C737.953 387.043 737.195 387.445 736.672 388.25C736.156 389.047 735.898 390.16 735.898 391.59C735.898 393.02 736.156 394.113 736.672 394.871C737.195 395.621 737.961 395.996 738.969 395.996ZM753.148 398.234C751.602 398.234 750.359 397.672 749.422 396.547C748.492 395.414 748.027 393.746 748.027 391.543C748.027 389.316 748.5 387.633 749.445 386.492C750.398 385.352 751.652 384.781 753.207 384.781C753.863 384.781 754.438 384.871 754.93 385.051C755.422 385.223 755.844 385.457 756.195 385.754C756.555 386.051 756.859 386.383 757.109 386.75H757.238C757.199 386.508 757.152 386.16 757.098 385.707C757.051 385.246 757.027 384.82 757.027 384.43V379.766H759.793V398H757.637L757.145 396.23H757.027C756.793 396.605 756.496 396.945 756.137 397.25C755.785 397.547 755.363 397.785 754.871 397.965C754.387 398.145 753.812 398.234 753.148 398.234ZM753.922 395.996C755.102 395.996 755.934 395.656 756.418 394.977C756.902 394.297 757.152 393.277 757.168 391.918V391.555C757.168 390.102 756.934 388.988 756.465 388.215C755.996 387.434 755.141 387.043 753.898 387.043C752.906 387.043 752.148 387.445 751.625 388.25C751.109 389.047 750.852 390.16 750.852 391.59C750.852 393.02 751.109 394.113 751.625 394.871C752.148 395.621 752.914 395.996 753.922 395.996ZM775.238 380.867C777.449 380.867 779.062 381.32 780.078 382.227C781.094 383.133 781.602 384.402 781.602 386.035C781.602 386.777 781.484 387.484 781.25 388.156C781.023 388.82 780.648 389.41 780.125 389.926C779.602 390.434 778.91 390.836 778.051 391.133C777.199 391.43 776.148 391.578 774.898 391.578H773.07V398H770.258V380.867H775.238ZM775.051 383.199H773.07V389.234H774.605C775.488 389.234 776.238 389.133 776.855 388.93C777.473 388.719 777.941 388.387 778.262 387.934C778.582 387.48 778.742 386.883 778.742 386.141C778.742 385.148 778.441 384.41 777.84 383.926C777.246 383.441 776.316 383.199 775.051 383.199ZM791.316 384.781C791.535 384.781 791.773 384.793 792.031 384.816C792.289 384.84 792.512 384.871 792.699 384.91L792.441 387.488C792.277 387.441 792.074 387.406 791.832 387.383C791.598 387.359 791.387 387.348 791.199 387.348C790.707 387.348 790.238 387.43 789.793 387.594C789.348 387.75 788.953 387.992 788.609 388.32C788.266 388.641 787.996 389.043 787.801 389.527C787.605 390.012 787.508 390.574 787.508 391.215V398H784.742V385.027H786.898L787.273 387.312H787.402C787.66 386.852 787.98 386.43 788.363 386.047C788.746 385.664 789.184 385.359 789.676 385.133C790.176 384.898 790.723 384.781 791.316 384.781ZM806.586 391.484C806.586 392.562 806.445 393.52 806.164 394.355C805.883 395.191 805.473 395.898 804.934 396.477C804.395 397.047 803.746 397.484 802.988 397.789C802.23 398.086 801.375 398.234 800.422 398.234C799.531 398.234 798.715 398.086 797.973 397.789C797.23 397.484 796.586 397.047 796.039 396.477C795.5 395.898 795.082 395.191 794.785 394.355C794.488 393.52 794.34 392.562 794.34 391.484C794.34 390.055 794.586 388.844 795.078 387.852C795.578 386.852 796.289 386.09 797.211 385.566C798.133 385.043 799.23 384.781 800.504 384.781C801.699 384.781 802.754 385.043 803.668 385.566C804.582 386.09 805.297 386.852 805.812 387.852C806.328 388.852 806.586 390.062 806.586 391.484ZM797.176 391.484C797.176 392.43 797.289 393.238 797.516 393.91C797.75 394.582 798.109 395.098 798.594 395.457C799.078 395.809 799.703 395.984 800.469 395.984C801.234 395.984 801.859 395.809 802.344 395.457C802.828 395.098 803.184 394.582 803.41 393.91C803.637 393.238 803.75 392.43 803.75 391.484C803.75 390.539 803.637 389.738 803.41 389.082C803.184 388.418 802.828 387.914 802.344 387.57C801.859 387.219 801.23 387.043 800.457 387.043C799.316 387.043 798.484 387.426 797.961 388.191C797.438 388.957 797.176 390.055 797.176 391.484ZM814.109 398.234C812.562 398.234 811.32 397.672 810.383 396.547C809.453 395.414 808.988 393.746 808.988 391.543C808.988 389.316 809.461 387.633 810.406 386.492C811.359 385.352 812.613 384.781 814.168 384.781C814.824 384.781 815.398 384.871 815.891 385.051C816.383 385.223 816.805 385.457 817.156 385.754C817.516 386.051 817.82 386.383 818.07 386.75H818.199C818.16 386.508 818.113 386.16 818.059 385.707C818.012 385.246 817.988 384.82 817.988 384.43V379.766H820.754V398H818.598L818.105 396.23H817.988C817.754 396.605 817.457 396.945 817.098 397.25C816.746 397.547 816.324 397.785 815.832 397.965C815.348 398.145 814.773 398.234 814.109 398.234ZM814.883 395.996C816.062 395.996 816.895 395.656 817.379 394.977C817.863 394.297 818.113 393.277 818.129 391.918V391.555C818.129 390.102 817.895 388.988 817.426 388.215C816.957 387.434 816.102 387.043 814.859 387.043C813.867 387.043 813.109 387.445 812.586 388.25C812.07 389.047 811.812 390.16 811.812 391.59C811.812 393.02 812.07 394.113 812.586 394.871C813.109 395.621 813.875 395.996 814.883 395.996ZM836.012 385.027V398H833.844L833.469 396.254H833.316C833.043 396.699 832.695 397.07 832.273 397.367C831.852 397.656 831.383 397.871 830.867 398.012C830.352 398.16 829.809 398.234 829.238 398.234C828.262 398.234 827.426 398.07 826.73 397.742C826.043 397.406 825.516 396.891 825.148 396.195C824.781 395.5 824.598 394.602 824.598 393.5V385.027H827.363V392.984C827.363 393.992 827.566 394.746 827.973 395.246C828.387 395.746 829.027 395.996 829.895 395.996C830.73 395.996 831.395 395.824 831.887 395.48C832.379 395.137 832.727 394.629 832.93 393.957C833.141 393.285 833.246 392.461 833.246 391.484V385.027H836.012ZM845.188 398.234C843.961 398.234 842.898 397.996 842 397.52C841.102 397.043 840.41 396.312 839.926 395.328C839.441 394.344 839.199 393.094 839.199 391.578C839.199 390 839.465 388.711 839.996 387.711C840.527 386.711 841.262 385.973 842.199 385.496C843.145 385.02 844.227 384.781 845.445 384.781C846.219 384.781 846.918 384.859 847.543 385.016C848.176 385.164 848.711 385.348 849.148 385.566L848.328 387.77C847.852 387.574 847.363 387.41 846.863 387.277C846.363 387.145 845.883 387.078 845.422 387.078C844.664 387.078 844.031 387.246 843.523 387.582C843.023 387.918 842.648 388.418 842.398 389.082C842.156 389.746 842.035 390.57 842.035 391.555C842.035 392.508 842.16 393.312 842.41 393.969C842.66 394.617 843.031 395.109 843.523 395.445C844.016 395.773 844.621 395.938 845.34 395.938C846.051 395.938 846.688 395.852 847.25 395.68C847.812 395.508 848.344 395.285 848.844 395.012V397.402C848.352 397.684 847.824 397.891 847.262 398.023C846.699 398.164 846.008 398.234 845.188 398.234ZM856.719 396.008C857.078 396.008 857.434 395.977 857.785 395.914C858.137 395.844 858.457 395.762 858.746 395.668V397.754C858.441 397.887 858.047 398 857.562 398.094C857.078 398.188 856.574 398.234 856.051 398.234C855.316 398.234 854.656 398.113 854.07 397.871C853.484 397.621 853.02 397.195 852.676 396.594C852.332 395.992 852.16 395.16 852.16 394.098V387.125H850.391V385.895L852.289 384.922L853.191 382.145H854.926V385.027H858.641V387.125H854.926V394.062C854.926 394.719 855.09 395.207 855.418 395.527C855.746 395.848 856.18 396.008 856.719 396.008Z" fill="white"/>
<defs>
<filter id="filter0_d_60_251" x="644" y="342" width="632" height="384" filterUnits="userSpaceOnUse" color-interpolation-filters="sRGB">
<feFlood flood-opacity="0" result="BackgroundImageFix"/>
<feColorMatrix in="SourceAlpha" type="matrix" values="0 0 0 0 0 0 0 0 0 0 0 0 0 0 0 0 0 0 127 0" result="hardAlpha"/>
<feOffset dy="20"/>
<feGaussianBlur stdDeviation="20.5"/>
<feComposite in2="hardAlpha" operator="out"/>
<feColorMatrix type="matrix" values="0 0 0 0 0 0 0 0 0 0 0 0 0 0 0 0 0 0 0.25 0"/>
<feBlend mode="normal" in2="BackgroundImageFix" result="effect1_dropShadow_60_251"/>
<feBlend mode="normal" in="SourceGraphic" in2="effect1_dropShadow_60_251" result="shape"/>
</filter>
</defs>
</svg>
